<svg id="Group_388" data-name="Group 388" xmlns="http://www.w3.org/2000/svg" xmlns:xlink="http://www.w3.org/1999/xlink" width="108.62" height="109" viewBox="0 0 108.62 109">
  <defs>
    <clipPath id="clip-path">
      <rect id="Rectangle_472" data-name="Rectangle 472" width="108.62" height="109" fill="none"/>
    </clipPath>
  </defs>
  <g id="Group_387" data-name="Group 387" clip-path="url(#clip-path)">
    <path id="Path_7904" data-name="Path 7904" d="M89.223,120.824H19.387c-1.318-.684-2.338-1.589-2.34-3.224,0-4.257-.023-8.514.01-12.77a3.163,3.163,0,0,1,3.1-3.161c.345-.018.693,0,1.149,0,0-1.674-.056-3.263.02-4.847a3.481,3.481,0,0,0-.926-2.575Q13.066,85.535,5.8,76.766a24.521,24.521,0,0,1-5.8-16.271c.021-4.327,0-8.655,0-12.983,0-7.166-.034-14.331.014-21.5a9.567,9.567,0,0,1,19.135.053c.045,7.414.013,14.828.014,22.241,0,.37,0,.741,0,1.189,5.044-3.177,9.945-2.014,13.789,2.032,5.5,5.785,11.281,11.294,16.873,16.989,1.456,1.483,2.656,3.217,3.97,4.838.167.206.318.426.547.735,2.19-3.871,5.481-6.62,8.462-9.637,4.563-4.618,9.178-9.184,13.764-13.779a9.3,9.3,0,0,1,8.912-2.827,27.417,27.417,0,0,1,3.945,1.468V48.206c0-7.378-.03-14.757.012-22.135a9.572,9.572,0,1,1,19.142.154c.026,11.245-.047,22.49.029,33.734a25.851,25.851,0,0,1-6.406,17.557C97.4,83.156,92.7,88.889,87.965,94.59a2.144,2.144,0,0,0-.624,1.058c-.061,1.975-.029,3.953-.029,5.955.236.028.37.053.5.058,2.664.094,3.748,1.223,3.749,3.914,0,3.653-.074,7.309.03,10.96.056,1.982-.533,3.437-2.372,4.289m-8.3-19.2c0-2.311.042-4.508-.016-6.7A4.676,4.676,0,0,1,82.1,91.626Q90,82.209,97.844,72.749a18.313,18.313,0,0,0,4.37-12.138q-.021-10.643,0-21.286,0-6.492,0-12.985a3.189,3.189,0,0,0-1.92-3.161c-2.178-1-4.462.632-4.466,3.183-.011,8.337-.032,16.674.006,25.012a16.357,16.357,0,0,1-5.056,12.213c-3.61,3.565-7.181,7.17-10.769,10.756-.828.828-1.627,1.687-2.494,2.473A3.173,3.173,0,0,1,72.3,75.581a3.3,3.3,0,0,1,.994-3.574q6.193-6.15,12.348-12.338a3.22,3.22,0,0,0,.188-4.737c-1.345-1.322-3.238-1.233-4.73.256q-9.114,9.1-18.213,18.214A17.877,17.877,0,0,0,57.5,86.513q.005,7.025,0,14.049c0,.342.031.685.049,1.062Zm-29.811-.009c0-5.267.036-10.41-.011-15.553A16.737,16.737,0,0,0,46.42,74.175c-6.305-6.487-12.754-12.834-19.157-19.226A3.179,3.179,0,0,0,22,56.209a3.2,3.2,0,0,0,.91,3.4q6.216,6.2,12.417,12.42a3.206,3.206,0,1,1-4.481,4.545q-6.71-6.686-13.4-13.4a15.362,15.362,0,0,1-4.337-8.133,19.235,19.235,0,0,1-.31-3.487q-.038-12.506-.005-25.012a3.473,3.473,0,0,0-1.048-2.789,2.981,2.981,0,0,0-3.356-.609,3.2,3.2,0,0,0-2,3.215q.01,17.136,0,34.271a18.314,18.314,0,0,0,4.387,12.131c4.958,5.935,9.856,11.92,14.886,17.793a7.274,7.274,0,0,1,2.054,5.665c-.155,1.781-.031,3.586-.031,5.39Zm-.046,6.508H23.518v6.259H51.062Zm34.064,0H57.582v6.262H85.127Z" transform="translate(0 -11.824)"/>
    <path id="Path_7905" data-name="Path 7905" d="M142.049,0c.919.241,1.857.429,2.755.731a13.767,13.767,0,0,1,6.134,21.834c-.364.434-.754.848-1.154,1.249Q141.1,32.506,132.41,41.189c-1.861,1.859-3.559,1.856-5.416,0-5.893-5.89-11.821-11.746-17.667-17.682A13.742,13.742,0,0,1,115.2.546c.711-.2,1.431-.365,2.147-.546h3.407a6.243,6.243,0,0,0,.69.212,13.432,13.432,0,0,1,6.992,3.529A11.869,11.869,0,0,1,129.5,5.116c.516-.487.8-.741,1.068-1.012A13.486,13.486,0,0,1,136.207.651c.8-.251,1.623-.436,2.435-.651ZM129.7,34.79c.218-.194.408-.345.578-.515,5.066-5.063,10.147-10.11,15.187-15.2a7.368,7.368,0,1,0-10.35-10.486c-1.027.977-2,2.011-3.018,3a3.2,3.2,0,0,1-4.808-.008c-1.066-1.039-2.081-2.133-3.176-3.14a7.11,7.11,0,0,0-7.288-1.706A7.331,7.331,0,0,0,113.867,19c5.074,5.153,10.219,10.238,15.335,15.351.145.144.309.27.5.437" transform="translate(-75.395)"/>
  </g>
</svg>
