<svg id="Group_386" data-name="Group 386" xmlns="http://www.w3.org/2000/svg" xmlns:xlink="http://www.w3.org/1999/xlink" width="108.01" height="109" viewBox="0 0 108.01 109">
  <defs>
    <clipPath id="clip-path">
      <rect id="Rectangle_471" data-name="Rectangle 471" width="108.01" height="109" fill="#fff" stroke="#fff" stroke-width="1"/>
    </clipPath>
  </defs>
  <g id="Group_385" data-name="Group 385" clip-path="url(#clip-path)">
    <path id="Path_7903" data-name="Path 7903" d="M77.228,19.088a3.674,3.674,0,0,0-.009-.856c-.523-1.873.227-3.166,1.584-4.474C83.133,9.587,87.342,5.292,91.58,1.027c.707-.712,1.427-1.3,2.479-.888,1.006.4,1.124,1.288,1.164,2.249.123,2.908.3,5.815.455,8.721.02.368.084.733.132,1.142,3.333.176,6.574.363,9.817.507.963.043,1.836.186,2.24,1.186s-.107,1.72-.794,2.4c-4.422,4.4-8.867,8.782-13.215,13.255a3.68,3.68,0,0,1-3.733,1.238,7.756,7.756,0,0,0-.944-.074c.3.468.524.805.742,1.144a50.911,50.911,0,0,1,8.044,31.836A48.7,48.7,0,0,1,87.3,91.664c-7.347,9.114-17.015,14.306-28.423,16.4A51.953,51.953,0,0,1,28.44,104.8C15.024,99.042,6.357,88.9,2.309,74.983c-4.3-14.777-2.66-29,5.457-42.185,6.793-11.037,16.86-17.651,29.425-20.44,13.974-3.1,27.173-1.092,39.448,6.424.154.094.321.167.589.306m.35,4.891c-.24-.2-.425-.385-.631-.535a45.626,45.626,0,0,0-11.591-6.1A48.338,48.338,0,0,0,36.9,16.181c-11.05,2.74-19.933,8.7-25.934,18.431C2.74,47.943,1.514,62.187,6.754,76.841a40.65,40.65,0,0,0,23.892,24.917A48.614,48.614,0,0,0,59.129,104.3c9.6-1.95,17.835-6.326,24.3-13.762A44.81,44.81,0,0,0,94.335,63.605,46.757,46.757,0,0,0,86.155,32.9c-.608-.883-1.294-1.712-1.851-2.443l-9.125,9.132a33.928,33.928,0,0,1,6.137,26C79.882,74.626,75.6,82.034,67.888,87.167A33.407,33.407,0,0,1,45.163,92.4a31.392,31.392,0,0,1-18.811-8.378C15.823,74.037,13.277,56.758,20.5,43.64c5.925-10.759,15.462-15.655,27.417-16.282a33.443,33.443,0,0,1,19.736,5.255c.3.188.957.3,1.134.13,2.945-2.876,5.839-5.8,8.79-8.764M65.817,35.758c-.422-.272-.756-.505-1.105-.71A30.632,30.632,0,0,0,44.278,31.3c-6.84.978-12.732,3.833-17.175,9.2-6.3,7.613-8.08,16.435-6.189,25.979,1.7,8.579,6.3,15.228,14.169,19.32a30.438,30.438,0,0,0,17.956,2.992c8.356-.977,15.194-4.661,19.923-11.75,4.506-6.756,5.816-14.252,4.612-22.213A28.837,28.837,0,0,0,72.47,42.2l-9.155,9.2c.094.194.247.5.389.805a17.7,17.7,0,0,1,.487,14.418c-2.809,7.1-9.181,10.439-17.325,9.6A14.623,14.623,0,0,1,34,66.548,17.032,17.032,0,0,1,33,57.2c1.074-6.284,4.362-10.833,10.589-12.782a18.636,18.636,0,0,1,12.032.308c.363.129.986.194,1.2-.011,3-2.925,5.951-5.9,9-8.952m-12.289,12.3c-4.863-2.3-12.058-.053-15.04,4.6-3.554,5.544-2.452,13.378,2.449,17.408,4.617,3.8,12.712,3.493,17.047-.61,4.545-4.3,4.64-11.835,2.342-15.4-1.8,1.806-3.566,3.614-5.375,5.381a4.452,4.452,0,0,1-1.476.993,51.391,51.391,0,0,1-5.149,1.718,2.98,2.98,0,0,1-2.088-.329c-.749-.459-.681-1.353-.408-2.161.459-1.358.961-2.7,1.343-4.084A6.578,6.578,0,0,1,49.1,52.452c1.5-1.412,2.931-2.9,4.424-4.394M102.1,16.231c-2.88-.161-5.431-.285-7.98-.453a1.784,1.784,0,0,1-1.9-1.937c-.1-1.7-.169-3.4-.264-5.093-.047-.838-.124-1.674-.2-2.749-3.671,3.673-7.144,7.137-10.594,10.625a1.286,1.286,0,0,0-.316.9c.224,2.931.488,5.859.749,8.874,3.066.29,6.063.585,9.063.838a1.164,1.164,0,0,0,.76-.376C94.9,23.4,98.379,19.937,102.1,16.231M77.995,28.777c-.061.051-.152.119-.232.2Q64.609,42.118,51.478,55.282a8.751,8.751,0,0,0-1.152,2.056l.363.357a11.056,11.056,0,0,0,2.2-1.348Q65.8,43.522,78.642,30.63c.228-.228.436-.477.654-.716l-.3.2-1-1.335" transform="translate(0 -0.001)" fill="#fff" stroke="#fff" stroke-width="1"/>
  </g>
</svg>
