<svg id="Group_384" data-name="Group 384" xmlns="http://www.w3.org/2000/svg" xmlns:xlink="http://www.w3.org/1999/xlink" width="128" height="110.647" viewBox="0 0 128 110.647">
  <defs>
    <clipPath id="clip-path">
      <rect id="Rectangle_470" data-name="Rectangle 470" width="128" height="110.647" fill="none"/>
    </clipPath>
  </defs>
  <g id="Group_383" data-name="Group 383" clip-path="url(#clip-path)">
    <path id="Path_7897" data-name="Path 7897" d="M128,112.67a2.275,2.275,0,0,0-.474.35,92.984,92.984,0,0,1-20.255,18.424c-.137.094-.263.2-.444.343l15.428,15.394-15.967,15.977c-.213-.2-.518-.476-.808-.766q-8.529-8.523-17.048-17.054a13.21,13.21,0,0,1-1.864-2.173c-.458-.724-.882-.758-1.622-.509a64.645,64.645,0,0,1-22.565,3.553,67.5,67.5,0,0,1-26.149-6.293A104.186,104.186,0,0,1,.8,113.427c-.241-.274-.531-.506-.8-.757v-.25A107.459,107.459,0,0,1,15.845,97.435,93.227,93.227,0,0,1,45.623,81.57c14.917-4.558,29.5-3.444,43.789,2.5a103.757,103.757,0,0,1,37.442,27.018c.35.389.763.722,1.146,1.081Zm-117.848-.226c.182.229.25.335.338.421a98.493,98.493,0,0,0,28.544,20.107c14.557,6.633,29.388,7.725,44.549,2.224a4.2,4.2,0,0,0,1.973-3.1.763.763,0,0,0-.217-.429c-1.869-1.879-3.746-3.75-5.6-5.6-10.325,7.4-23.2,6.6-31.46-.133-11.809-9.63-13.269-21.579-6.749-34.978-11.947,4.961-22.179,12.388-31.379,21.489M64.03,123.716a18.736,18.736,0,1,0-18.78-18.681,18.692,18.692,0,0,0,18.78,18.681m53.982-11.171C108.754,103.392,98.454,95.9,86.1,90.8a26.458,26.458,0,0,1,4.127,15.3,26.131,26.131,0,0,1-5.2,14.649c1.862,1.856,3.637,3.67,5.481,5.413a1.5,1.5,0,0,0,1.276.148c2.055-.74,4.272-1.212,6.239-.412,2.508,1.019,4.228.1,6.017-1.338.681-.547,1.419-1.022,2.121-1.544a90.7,90.7,0,0,0,11.855-10.47m-6.446,34.8c-.1-.123-.221-.289-.363-.431q-6.267-6.269-12.542-12.529a3.8,3.8,0,0,0-5.469-.228c-1.574,1.537-1.5,3.822.212,5.555,1.783,1.807,3.588,3.593,5.382,5.388,2.524,2.526,5.047,5.053,7.508,7.517l5.272-5.272" transform="translate(0 -52.511)"/>
    <path id="Path_7898" data-name="Path 7898" d="M260.349,11.549l7.093,2.42-4.805,14.178-7.1-2.41,4.809-14.187" transform="translate(-170.36 -7.699)"/>
    <path id="Path_7899" data-name="Path 7899" d="M24.528,63.441,16.459,50.806l6.313-4.044L30.841,59.4l-6.313,4.038" transform="translate(-10.973 -31.175)"/>
    <path id="Path_7900" data-name="Path 7900" d="M324.369,59.354l8.064-12.638,6.322,4.028-8.066,12.645-6.32-4.035" transform="translate(-216.246 -31.144)"/>
    <rect id="Rectangle_469" data-name="Rectangle 469" width="7.3" height="14.885" transform="translate(60.346)"/>
    <path id="Path_7901" data-name="Path 7901" d="M97.614,28.078,92.8,13.9,99.9,11.482l4.81,14.177-7.092,2.419" transform="translate(-61.867 -7.655)"/>
    <path id="Path_7902" data-name="Path 7902" d="M169.475,146.164a11.242,11.242,0,1,1,11.273-11.136,11.228,11.228,0,0,1-11.273,11.136m.065-7.5a3.736,3.736,0,0,0,3.706-3.762,3.745,3.745,0,1,0-7.49.082,3.731,3.731,0,0,0,3.784,3.681" transform="translate(-105.504 -82.453)"/>
  </g>
</svg>
